<svg width="17" height="12" viewBox="0 0 17 12" fill="none" xmlns="http://www.w3.org/2000/svg">
<path fill-rule="evenodd" clip-rule="evenodd" d="M1.10332 0.0468166C1.0254 0.0711518 0.937286 0.100434 0.907506 0.111854C0.867136 0.127358 1.777 1.05907 4.48508 3.77541C6.48255 5.77896 8.15962 7.44687 8.21191 7.48186C8.27831 7.52625 8.36503 7.54547 8.49905 7.54547C8.63252 7.54547 8.72056 7.52608 8.78779 7.48186C8.93178 7.38714 16.1428 0.139675 16.1117 0.120851C16.0971 0.111987 16.004 0.0807465 15.9048 0.0514314C15.7416 0.0031926 15.0382 -0.00165458 8.48471 0.000370581C2.55144 0.00219655 1.21942 0.0105629 1.10332 0.0468166ZM0.0719764 1.0419L0 1.26112V5.97404V10.687L0.0719764 10.9062L0.14392 11.1254L2.7196 8.54972L5.29524 5.97404L2.7196 3.39836L0.14392 0.82272L0.0719764 1.0419ZM14.275 3.40188L11.7029 5.97411L14.2789 8.55012L16.855 11.1262L16.9275 10.899L17 10.6718L16.9907 5.90764C16.9816 1.208 16.9806 1.1414 16.9143 0.986593L16.847 0.829659L14.275 3.40188ZM3.42349 9.24024C2.01106 10.6527 0.868397 11.8163 0.8842 11.8259C0.900037 11.8355 0.994124 11.8673 1.09332 11.8967C1.25643 11.9449 1.96288 11.9499 8.49905 11.9499C15.0352 11.9499 15.7417 11.9449 15.9048 11.8967C16.004 11.8673 16.0981 11.8355 16.1139 11.8259C16.1297 11.8163 14.9871 10.6527 13.5746 9.24024L11.0066 6.67203L10.2093 7.46403C9.77079 7.89968 9.34481 8.29462 9.26264 8.34169C8.83025 8.58956 8.16786 8.58956 7.73547 8.34169C7.6533 8.29462 7.22732 7.89968 6.78882 7.46403L5.99153 6.67203L3.42349 9.24024Z" fill="#15B7E1"/>
</svg>
