<svg width="1919" height="793" viewBox="0 0 1919 793" fill="none" xmlns="http://www.w3.org/2000/svg">
<path opacity="0.206" d="M2.50932 246.412C2.50932 246.412 496.561 130.605 976.561 186.754C1456.56 242.903 1919 196.16 1919 196.16V43.8827C1919 43.8827 1489.34 158.777 960.17 49.9877C430.998 -58.8011 -1 43.8827 -1 43.8827L2.50932 246.412Z" fill="#F7F9FB"/>
<path d="M1919 792.744L0.1698 792.744V94.0472C0.1698 94.0472 427.227 18.6555 958.415 79.4976C1489.6 140.34 1919 94.0472 1919 94.0472V792.744Z" fill="#141B25"/>
<path opacity="0.175" d="M0.173103 792.745H1919L1918.6 310.654C1918.6 310.654 1479.84 295.521 958.014 389.241C436.186 482.961 -0.230469 310.654 -0.230469 310.654L0.173103 792.745Z" fill="#141B25"/>
</svg>
