<svg width="32" height="32" viewBox="0 0 32 32" fill="none" xmlns="http://www.w3.org/2000/svg">
<rect width="32" height="32" rx="16" fill="white"/>
<path fill-rule="evenodd" clip-rule="evenodd" d="M9.10332 10.0468C9.0254 10.0712 8.93729 10.1004 8.90751 10.1119C8.86714 10.1274 9.777 11.0591 12.4851 13.7754C14.4826 15.779 16.1596 17.4469 16.2119 17.4819C16.2783 17.5262 16.365 17.5455 16.4991 17.5455C16.6325 17.5455 16.7206 17.5261 16.7878 17.4819C16.9318 17.3871 24.1428 10.1397 24.1117 10.1209C24.0971 10.112 24.004 10.0807 23.9048 10.0514C23.7416 10.0032 23.0382 9.99835 16.4847 10.0004C10.5514 10.0022 9.21942 10.0106 9.10332 10.0468ZM8.07198 11.0419L8 11.2611V15.974V20.687L8.07198 20.9062L8.14392 21.1254L10.7196 18.5497L13.2952 15.974L10.7196 13.3984L8.14392 10.8227L8.07198 11.0419ZM22.275 13.4019L19.7029 15.9741L22.2789 18.5501L24.855 21.1262L24.9275 20.899L25 20.6718L24.9907 15.9076C24.9816 11.208 24.9806 11.1414 24.9143 10.9866L24.847 10.8297L22.275 13.4019ZM11.4235 19.2402C10.0111 20.6527 8.8684 21.8163 8.8842 21.8259C8.90004 21.8355 8.99412 21.8673 9.09332 21.8967C9.25643 21.9449 9.96288 21.9499 16.4991 21.9499C23.0352 21.9499 23.7417 21.9449 23.9048 21.8967C24.004 21.8673 24.0981 21.8355 24.1139 21.8259C24.1297 21.8163 22.9871 20.6527 21.5746 19.2402L19.0066 16.672L18.2093 17.464C17.7708 17.8997 17.3448 18.2946 17.2626 18.3417C16.8303 18.5896 16.1679 18.5896 15.7355 18.3417C15.6533 18.2946 15.2273 17.8997 14.7888 17.464L13.9915 16.672L11.4235 19.2402Z" fill="#141B25"/>
</svg>
