<svg width="22" height="23" viewBox="0 0 22 23" fill="none" xmlns="http://www.w3.org/2000/svg">
<path d="M5.5096 22.437H1.16635V7.83252H5.5096V22.437ZM3.33564 5.84033C1.94681 5.84033 0.820312 4.63916 0.820312 3.18896C0.820313 2.49238 1.08532 1.82433 1.55703 1.33177C2.02875 0.839216 2.66853 0.5625 3.33564 0.5625C4.00275 0.5625 4.64253 0.839216 5.11425 1.33177C5.58596 1.82433 5.85097 2.49238 5.85097 3.18896C5.85097 4.63916 4.724 5.84033 3.33564 5.84033ZM21.765 22.437H17.4311V15.3276C17.4311 13.6333 17.3984 11.4604 15.173 11.4604C12.9148 11.4604 12.5688 13.3013 12.5688 15.2056V22.437H8.23022V7.83252H12.3958V9.82471H12.4566C13.0364 8.67725 14.4528 7.46631 16.566 7.46631C20.9616 7.46631 21.7697 10.4888 21.7697 14.4146V22.437H21.765Z" fill="#15264C"/>
</svg>
