<svg width="32" height="32" viewBox="0 0 32 32" fill="none" xmlns="http://www.w3.org/2000/svg">
<rect width="32" height="32" rx="16" fill="white"/>
<path d="M22.9286 8H10.0681C9.47879 8 9 8.48549 9 9.08147V21.9185C9 22.5145 9.47879 23 10.0681 23H22.9286C23.5179 23 24 22.5145 24 21.9185V9.08147C24 8.48549 23.5179 8 22.9286 8ZM13.5335 20.8571H11.3103V13.6987H13.5368V20.8571H13.5335ZM12.4219 12.721C11.7087 12.721 11.1328 12.1417 11.1328 11.4319C11.1328 10.7221 11.7087 10.1429 12.4219 10.1429C13.1317 10.1429 13.7109 10.7221 13.7109 11.4319C13.7109 12.1451 13.135 12.721 12.4219 12.721ZM21.8672 20.8571H19.644V17.375C19.644 16.5446 19.6272 15.4766 18.4888 15.4766C17.3304 15.4766 17.1529 16.3806 17.1529 17.3147V20.8571H14.9297V13.6987H17.0625V14.6763H17.0926C17.3906 14.1138 18.1172 13.5212 19.1987 13.5212C21.4487 13.5212 21.8672 15.0045 21.8672 16.933V20.8571Z" fill="#141B25"/>
</svg>
