<svg width="68" height="55" viewBox="0 0 68 55" fill="none" xmlns="http://www.w3.org/2000/svg">
<g filter="url(#filter0_d_1015_423)">
<path d="M41.8948 34.933C39.6515 32.4491 38.4464 29.2005 38.5274 25.8558C38.5274 15.1772 44.5005 6.82617 56.4468 0.802734L59.5737 6.71722C52.887 10.0017 49.5436 13.8622 49.5436 18.2987C52.2497 18.5556 54.7667 19.7981 56.6152 21.7894C58.4216 23.6479 59.4253 26.1408 59.4101 28.7313C59.4767 31.3518 58.5016 33.892 56.6982 35.7958C55.8304 36.7318 54.773 37.4723 53.5964 37.968C52.4197 38.4636 51.1508 38.703 49.8743 38.6701C48.3516 38.6687 46.8477 38.3333 45.4689 37.6875C44.0901 37.0418 42.87 36.1015 41.8948 34.933ZM11.7637 34.933C9.54286 32.4395 8.35258 29.1963 8.43356 25.8594C8.43356 15.1816 14.3802 6.83058 26.2736 0.806339L29.4799 6.72083C22.7386 10.0053 19.368 13.8658 19.368 18.3023C22.1008 18.5468 24.6473 19.7897 26.5202 21.793C28.3273 23.651 29.3315 26.1441 29.3163 28.7349C29.3479 30.0361 29.1206 31.3305 28.6476 32.5432C28.1747 33.7559 27.4654 34.8627 26.561 35.7994C25.6837 36.7342 24.6187 37.4735 23.4358 37.9688C22.2529 38.4641 20.9786 38.7043 19.6963 38.6737C18.1796 38.6735 16.6817 38.338 15.3101 37.6913C13.9384 37.0446 12.7269 36.1026 11.7625 34.933H11.7637Z" fill="#15264C"/>
</g>
<defs>
<filter id="filter0_d_1015_423" x="0.429688" y="0.802734" width="67.1445" height="53.873" filterUnits="userSpaceOnUse" color-interpolation-filters="sRGB">
<feFlood flood-opacity="0" result="BackgroundImageFix"/>
<feColorMatrix in="SourceAlpha" type="matrix" values="0 0 0 0 0 0 0 0 0 0 0 0 0 0 0 0 0 0 127 0" result="hardAlpha"/>
<feOffset dy="8"/>
<feGaussianBlur stdDeviation="4"/>
<feColorMatrix type="matrix" values="0 0 0 0 0.0823529 0 0 0 0 0.14902 0 0 0 0 0.298039 0 0 0 0.141 0"/>
<feBlend mode="normal" in2="BackgroundImageFix" result="effect1_dropShadow_1015_423"/>
<feBlend mode="normal" in="SourceGraphic" in2="effect1_dropShadow_1015_423" result="shape"/>
</filter>
</defs>
</svg>
