<svg width="12" height="16" viewBox="0 0 12 16" fill="none" xmlns="http://www.w3.org/2000/svg">
<path d="M5.27122 15.3506C0.825254 8.90524 0 8.24376 0 5.875C0 2.63032 2.63032 0 5.875 0C9.11968 0 11.75 2.63032 11.75 5.875C11.75 8.24376 10.9247 8.90524 6.47878 15.3506C6.18702 15.772 5.56295 15.772 5.27122 15.3506ZM5.875 8.32292C7.22695 8.32292 8.32292 7.22695 8.32292 5.875C8.32292 4.52305 7.22695 3.42708 5.875 3.42708C4.52305 3.42708 3.42708 4.52305 3.42708 5.875C3.42708 7.22695 4.52305 8.32292 5.875 8.32292Z" fill="#15B7E1"/>
</svg>
